<svg width="29" height="39" viewBox="0 0 29 39" fill="none" xmlns="http://www.w3.org/2000/svg">
<path d="M18.5 18C18.5 19.933 16.933 21.5 15 21.5C13.067 21.5 11.5 19.933 11.5 18" stroke="#C0C3C6" stroke-width="1.5" stroke-linecap="round" stroke-linejoin="round"/>
<path d="M22.2311 18H7.76887C6.79195 18 6 17.208 6 16.2311C6 15.762 6.18636 15.3121 6.51809 14.9803L7.12132 14.3771C7.68393 13.8145 8 13.0514 8 12.2558V9.5C8 5.63401 11.134 2.5 15 2.5C18.866 2.5 22 5.634 22 9.5V12.2558C22 13.0514 22.3161 13.8145 22.8787 14.3771L23.4819 14.9803C23.8136 15.3121 24 15.762 24 16.2311C24 17.208 23.208 18 22.2311 18Z" stroke="#C0C3C6" stroke-width="1.5" stroke-linecap="round" stroke-linejoin="round"/>
<path d="M1.41335 33H0.24858L2.86577 25.7273H4.13352L6.75071 33H5.58594L3.52983 27.0483H3.47301L1.41335 33ZM1.60866 30.152H5.38707V31.0753H1.60866V30.152ZM8.77752 25.7273V33H7.71573V25.7273H8.77752ZM12.5568 33.1101C12.0194 33.1101 11.5566 32.9953 11.1683 32.7656C10.7824 32.5336 10.4841 32.2081 10.2734 31.7891C10.0651 31.3677 9.96094 30.8741 9.96094 30.3082C9.96094 29.7495 10.0651 29.2571 10.2734 28.831C10.4841 28.4048 10.7777 28.0722 11.1541 27.8331C11.5329 27.594 11.9756 27.4744 12.4822 27.4744C12.79 27.4744 13.0883 27.5253 13.3771 27.6271C13.666 27.7289 13.9252 27.8887 14.1548 28.1065C14.3845 28.3243 14.5656 28.6072 14.6982 28.9553C14.8307 29.3009 14.897 29.7211 14.897 30.2159V30.5923H10.5611V29.7969H13.8565C13.8565 29.5175 13.7997 29.2701 13.6861 29.0547C13.5724 28.8369 13.4126 28.6652 13.2067 28.5398C13.0031 28.4143 12.764 28.3516 12.4893 28.3516C12.1911 28.3516 11.9306 28.425 11.7081 28.5717C11.4879 28.7161 11.3175 28.9055 11.1967 29.1399C11.0784 29.3719 11.0192 29.6241 11.0192 29.8963V30.5178C11.0192 30.8823 11.0831 31.1925 11.2109 31.4482C11.3411 31.7038 11.5223 31.8991 11.7543 32.0341C11.9863 32.1667 12.2573 32.233 12.5675 32.233C12.7687 32.233 12.9522 32.2045 13.1179 32.1477C13.2836 32.0885 13.4268 32.0009 13.5476 31.8849C13.6683 31.7689 13.7607 31.6257 13.8246 31.4553L14.8295 31.6364C14.7491 31.9323 14.6046 32.1915 14.3963 32.4141C14.1903 32.6342 13.9311 32.8059 13.6186 32.929C13.3085 33.0497 12.9545 33.1101 12.5568 33.1101ZM16.0751 33V27.5455H17.1014V28.4119H17.1582C17.2576 28.1184 17.4328 27.8875 17.6838 27.7195C17.9371 27.549 18.2235 27.4638 18.5431 27.4638C18.6094 27.4638 18.6876 27.4661 18.7775 27.4709C18.8699 27.4756 18.9421 27.4815 18.9941 27.4886V28.5043C18.9515 28.4924 18.8758 28.4794 18.7669 28.4652C18.658 28.4486 18.5491 28.4403 18.4402 28.4403C18.1892 28.4403 17.9655 28.4936 17.769 28.6001C17.5749 28.7043 17.421 28.8499 17.3074 29.0369C17.1937 29.2216 17.1369 29.4323 17.1369 29.669V33H16.0751ZM22.7814 27.5455V28.3977H19.802V27.5455H22.7814ZM20.601 26.2386H21.6628V31.3984C21.6628 31.6044 21.6936 31.7595 21.7551 31.8636C21.8167 31.9654 21.896 32.0353 21.9931 32.0732C22.0925 32.1087 22.2002 32.1264 22.3162 32.1264C22.4015 32.1264 22.476 32.1205 22.54 32.1087C22.6039 32.0968 22.6536 32.0874 22.6891 32.0803L22.8809 32.9574C22.8193 32.9811 22.7317 33.0047 22.6181 33.0284C22.5044 33.0545 22.3624 33.0687 22.1919 33.071C21.9126 33.0758 21.6522 33.026 21.4107 32.9219C21.1692 32.8177 20.9739 32.6567 20.8248 32.4389C20.6756 32.2211 20.601 31.9477 20.601 31.6186V26.2386ZM27.9554 28.8771L26.9931 29.0476C26.9528 28.9245 26.8889 28.8073 26.8013 28.696C26.7161 28.5848 26.6001 28.4936 26.4533 28.4226C26.3065 28.3516 26.123 28.3161 25.9029 28.3161C25.6022 28.3161 25.3513 28.3835 25.15 28.5185C24.9488 28.651 24.8482 28.8227 24.8482 29.0334C24.8482 29.2157 24.9157 29.3625 25.0506 29.4737C25.1855 29.585 25.4033 29.6761 25.704 29.7472L26.5705 29.946C27.0724 30.062 27.4464 30.2408 27.6926 30.4822C27.9389 30.7237 28.062 31.0374 28.062 31.4233C28.062 31.75 27.9673 32.0412 27.7779 32.2969C27.5909 32.5502 27.3292 32.7491 26.9931 32.8935C26.6593 33.0379 26.2722 33.1101 25.8319 33.1101C25.2211 33.1101 24.7227 32.9799 24.3368 32.7195C23.9509 32.4567 23.7142 32.0838 23.6266 31.6009L24.6529 31.4446C24.7168 31.7121 24.8482 31.9145 25.0471 32.0518C25.2459 32.1868 25.5051 32.2543 25.8248 32.2543C26.1728 32.2543 26.4509 32.1821 26.6593 32.0376C26.8676 31.8909 26.9718 31.7121 26.9718 31.5014C26.9718 31.331 26.9078 31.1877 26.78 31.0717C26.6545 30.9557 26.4616 30.8681 26.2012 30.8089L25.2779 30.6065C24.7689 30.4905 24.3925 30.3059 24.1486 30.0526C23.9071 29.7992 23.7864 29.4785 23.7864 29.0902C23.7864 28.7682 23.8764 28.4865 24.0563 28.245C24.2362 28.0036 24.4848 27.8153 24.802 27.6804C25.1193 27.5431 25.4827 27.4744 25.8922 27.4744C26.4817 27.4744 26.9457 27.6023 27.2843 27.858C27.6228 28.1113 27.8465 28.451 27.9554 28.8771Z" fill="#C0C3C6"/>
</svg>
