<svg width="54" height="39" viewBox="0 0 54 39" fill="none" xmlns="http://www.w3.org/2000/svg">
<path d="M19 9V15" stroke="#C0C3C6" stroke-linecap="round" stroke-linejoin="round"/>
<path d="M19 9H18C17.0681 9 16.6022 9 16.2346 9.15224C15.7446 9.35523 15.3552 9.74458 15.1522 10.2346C15 10.6022 15 11.0681 15 12C15 12.9319 15 13.3978 15.1522 13.7654C15.3552 14.2554 15.7446 14.6448 16.2346 14.8478C16.6022 15 17.0681 15 18 15H19L27.0796 17.4239C28.0291 17.7087 28.5039 17.8512 28.9257 18.1014L28.9459 18.1135C29.3663 18.3663 29.7167 18.7167 30.4177 19.4177L30.5858 19.5858C30.7051 19.7051 30.7647 19.7647 30.831 19.8123C30.9561 19.9021 31.1003 19.9619 31.2523 19.9868C31.3327 20 31.4171 20 31.5858 20C31.9713 20 32.1641 20 32.3196 19.9475C32.6155 19.8477 32.8477 19.6155 32.9475 19.3196C33 19.1641 33 18.9713 33 18.5858V5.41421C33 5.02866 33 4.83589 32.9475 4.68039C32.8477 4.38452 32.6155 4.15225 32.3196 4.05245C32.1641 4 31.9713 4 31.5858 4C31.4171 4 31.3327 4 31.2523 4.0132C31.1003 4.03815 30.9561 4.09787 30.831 4.18771C30.7647 4.23526 30.7051 4.29491 30.5858 4.41421L30.4177 4.5823C29.7167 5.28326 29.3663 5.63374 28.9459 5.88649L28.9257 5.89856C28.5039 6.14884 28.0291 6.29126 27.0796 6.57611L19 9Z" stroke="#C0C3C6" stroke-linecap="round" stroke-linejoin="round"/>
<path d="M20 15.5V18.0458C20 19.1251 20.8749 20 21.9542 20C22.6075 20 23.2177 19.6735 23.5801 19.1298L25 17" stroke="#C0C3C6" stroke-linecap="round" stroke-linejoin="round"/>
<path d="M6.83949 28.0923H5.73153C5.68892 27.8556 5.60961 27.6473 5.49361 27.4673C5.3776 27.2874 5.23556 27.1347 5.06747 27.0092C4.89938 26.8838 4.71117 26.7891 4.50284 26.7251C4.29688 26.6612 4.07789 26.6293 3.84588 26.6293C3.42685 26.6293 3.05161 26.7346 2.72017 26.9453C2.3911 27.156 2.13068 27.465 1.93892 27.8722C1.74953 28.2794 1.65483 28.7765 1.65483 29.3636C1.65483 29.9555 1.74953 30.455 1.93892 30.8622C2.13068 31.2694 2.39228 31.5772 2.72372 31.7855C3.05516 31.9938 3.42803 32.098 3.84233 32.098C4.07197 32.098 4.28977 32.0672 4.49574 32.0057C4.70407 31.9418 4.89228 31.8482 5.06037 31.7251C5.22846 31.602 5.3705 31.4517 5.48651 31.2741C5.60488 31.0942 5.68655 30.8883 5.73153 30.6562L6.83949 30.6598C6.7803 31.0173 6.66548 31.3464 6.49503 31.647C6.32694 31.9453 6.11032 32.2034 5.84517 32.4212C5.58239 32.6366 5.28172 32.8035 4.94318 32.9219C4.60464 33.0402 4.23532 33.0994 3.83523 33.0994C3.20549 33.0994 2.64441 32.9503 2.15199 32.652C1.65956 32.3513 1.27131 31.9216 0.987216 31.3629C0.705492 30.8042 0.564631 30.1378 0.564631 29.3636C0.564631 28.5871 0.706676 27.9207 0.990767 27.3643C1.27486 26.8056 1.66312 26.3771 2.15554 26.0788C2.64796 25.7782 3.20786 25.6278 3.83523 25.6278C4.22112 25.6278 4.58097 25.6835 4.91477 25.7947C5.25095 25.9036 5.55279 26.0646 5.82031 26.2777C6.08783 26.4884 6.30919 26.7464 6.48438 27.0518C6.65956 27.3549 6.77794 27.7017 6.83949 28.0923ZM9.65465 33.1207C9.30901 33.1207 8.99651 33.0568 8.71715 32.929C8.4378 32.7988 8.21644 32.6106 8.05309 32.3643C7.8921 32.1181 7.81161 31.8163 7.81161 31.4588C7.81161 31.151 7.8708 30.8977 7.98917 30.6989C8.10754 30.5 8.26734 30.3426 8.46857 30.2266C8.6698 30.1106 8.89471 30.023 9.14329 29.9638C9.39187 29.9046 9.64518 29.8596 9.90323 29.8288C10.2299 29.791 10.4951 29.7602 10.6987 29.7365C10.9023 29.7105 11.0502 29.669 11.1426 29.6122C11.2349 29.5554 11.2811 29.4631 11.2811 29.3352V29.3104C11.2811 29.0002 11.1935 28.7599 11.0183 28.5895C10.8455 28.419 10.5874 28.3338 10.2441 28.3338C9.88666 28.3338 9.60494 28.4131 9.39897 28.5717C9.19537 28.728 9.05451 28.902 8.97638 29.0938L7.97852 28.8665C8.09689 28.535 8.26971 28.2675 8.49698 28.0639C8.72662 27.858 8.99059 27.7088 9.28888 27.6165C9.58718 27.5218 9.90086 27.4744 10.2299 27.4744C10.4477 27.4744 10.6786 27.5005 10.9224 27.5526C11.1686 27.6023 11.3983 27.6946 11.6113 27.8295C11.8268 27.9645 12.0031 28.1574 12.1404 28.4084C12.2778 28.657 12.3464 28.9801 12.3464 29.3778V33H11.3095V32.2543H11.2669C11.1982 32.3916 11.0952 32.5265 10.9579 32.6591C10.8206 32.7917 10.6442 32.9018 10.4288 32.9893C10.2134 33.0769 9.95531 33.1207 9.65465 33.1207ZM9.88548 32.2685C10.179 32.2685 10.43 32.2105 10.6383 32.0945C10.849 31.9785 11.0088 31.8269 11.1177 31.6399C11.229 31.4505 11.2846 31.2481 11.2846 31.0327V30.3295C11.2467 30.3674 11.1734 30.4029 11.0645 30.4361C10.9579 30.4669 10.836 30.4941 10.6987 30.5178C10.5614 30.5391 10.4276 30.5592 10.2974 30.5781C10.1672 30.5947 10.0583 30.6089 9.9707 30.6207C9.76474 30.6468 9.57653 30.6906 9.40607 30.7521C9.23799 30.8137 9.10304 30.9025 9.00124 31.0185C8.90181 31.1321 8.8521 31.2836 8.8521 31.473C8.8521 31.7358 8.94916 31.9347 9.14329 32.0696C9.33742 32.2022 9.58481 32.2685 9.88548 32.2685ZM13.7607 33V27.5455H14.7798V28.4332H14.8473C14.9609 28.1326 15.1468 27.8982 15.4048 27.7301C15.6629 27.5597 15.9718 27.4744 16.3317 27.4744C16.6963 27.4744 17.0017 27.5597 17.2479 27.7301C17.4964 27.9006 17.6799 28.1349 17.7983 28.4332H17.8551C17.9853 28.142 18.1925 27.91 18.4766 27.7372C18.7607 27.562 19.0992 27.4744 19.4922 27.4744C19.987 27.4744 20.3906 27.6295 20.7031 27.9396C21.018 28.2498 21.1754 28.7173 21.1754 29.3423V33H20.1136V29.4418C20.1136 29.0724 20.013 28.8049 19.8118 28.6392C19.6106 28.4735 19.3703 28.3906 19.0909 28.3906C18.7453 28.3906 18.4766 28.4972 18.2848 28.7102C18.093 28.9209 17.9972 29.192 17.9972 29.5234V33H16.9389V29.3743C16.9389 29.0784 16.8466 28.8404 16.6619 28.6605C16.4773 28.4806 16.237 28.3906 15.9411 28.3906C15.7398 28.3906 15.554 28.4439 15.3835 28.5504C15.2154 28.6546 15.0793 28.8002 14.9751 28.9872C14.8733 29.1742 14.8224 29.3909 14.8224 29.6371V33H13.7607ZM22.5985 35.0455V27.5455H23.6355V28.4297H23.7243C23.7858 28.3161 23.8746 28.1847 23.9906 28.0355C24.1066 27.8864 24.2676 27.7562 24.4735 27.6449C24.6795 27.5312 24.9518 27.4744 25.2903 27.4744C25.7306 27.4744 26.1236 27.5857 26.4693 27.8082C26.8149 28.0308 27.086 28.3516 27.2825 28.7706C27.4814 29.1896 27.5808 29.6939 27.5808 30.2834C27.5808 30.8729 27.4825 31.3783 27.286 31.7997C27.0895 32.2187 26.8197 32.5419 26.4764 32.7692C26.1331 32.9941 25.7413 33.1065 25.301 33.1065C24.9695 33.1065 24.6984 33.0509 24.4877 32.9396C24.2794 32.8284 24.1161 32.6982 23.9977 32.549C23.8793 32.3999 23.7882 32.2673 23.7243 32.1513H23.6603V35.0455H22.5985ZM23.639 30.2727C23.639 30.6562 23.6947 30.9924 23.8059 31.2812C23.9172 31.5701 24.0782 31.7962 24.2889 31.9595C24.4996 32.1205 24.7576 32.201 25.063 32.201C25.3803 32.201 25.6454 32.117 25.8585 31.9489C26.0716 31.7784 26.2325 31.5476 26.3414 31.2564C26.4527 30.9652 26.5083 30.6373 26.5083 30.2727C26.5083 29.9129 26.4539 29.5897 26.345 29.3033C26.2385 29.0168 26.0775 28.7907 25.862 28.625C25.649 28.4593 25.3826 28.3764 25.063 28.3764C24.7553 28.3764 24.4949 28.4557 24.2818 28.6143C24.0711 28.773 23.9113 28.9943 23.8024 29.2784C23.6935 29.5625 23.639 29.8939 23.639 30.2727ZM30.3578 33.1207C30.0121 33.1207 29.6996 33.0568 29.4203 32.929C29.1409 32.7988 28.9196 32.6106 28.7562 32.3643C28.5952 32.1181 28.5147 31.8163 28.5147 31.4588C28.5147 31.151 28.5739 30.8977 28.6923 30.6989C28.8107 30.5 28.9705 30.3426 29.1717 30.2266C29.3729 30.1106 29.5978 30.023 29.8464 29.9638C30.095 29.9046 30.3483 29.8596 30.6064 29.8288C30.9331 29.791 31.1982 29.7602 31.4018 29.7365C31.6054 29.7105 31.7534 29.669 31.8457 29.6122C31.938 29.5554 31.9842 29.4631 31.9842 29.3352V29.3104C31.9842 29.0002 31.8966 28.7599 31.7214 28.5895C31.5486 28.419 31.2905 28.3338 30.9473 28.3338C30.5898 28.3338 30.3081 28.4131 30.1021 28.5717C29.8985 28.728 29.7576 28.902 29.6795 29.0938L28.6816 28.8665C28.8 28.535 28.9728 28.2675 29.2001 28.0639C29.4297 27.858 29.6937 27.7088 29.992 27.6165C30.2903 27.5218 30.604 27.4744 30.9331 27.4744C31.1509 27.4744 31.3817 27.5005 31.6255 27.5526C31.8717 27.6023 32.1014 27.6946 32.3145 27.8295C32.5299 27.9645 32.7063 28.1574 32.8436 28.4084C32.9809 28.657 33.0495 28.9801 33.0495 29.3778V33H32.0126V32.2543H31.97C31.9013 32.3916 31.7984 32.5265 31.661 32.6591C31.5237 32.7917 31.3474 32.9018 31.1319 32.9893C30.9165 33.0769 30.6584 33.1207 30.3578 33.1207ZM30.5886 32.2685C30.8822 32.2685 31.1331 32.2105 31.3414 32.0945C31.5521 31.9785 31.7119 31.8269 31.8208 31.6399C31.9321 31.4505 31.9877 31.2481 31.9877 31.0327V30.3295C31.9499 30.3674 31.8765 30.4029 31.7676 30.4361C31.661 30.4669 31.5391 30.4941 31.4018 30.5178C31.2645 30.5391 31.1307 30.5592 31.0005 30.5781C30.8703 30.5947 30.7614 30.6089 30.6738 30.6207C30.4679 30.6468 30.2797 30.6906 30.1092 30.7521C29.9411 30.8137 29.8062 30.9025 29.7044 31.0185C29.6049 31.1321 29.5552 31.2836 29.5552 31.473C29.5552 31.7358 29.6523 31.9347 29.8464 32.0696C30.0405 32.2022 30.2879 32.2685 30.5886 32.2685ZM34.4638 33V27.5455H35.5256V33H34.4638ZM35 26.7038C34.8153 26.7038 34.6567 26.6423 34.5241 26.5192C34.3939 26.3937 34.3288 26.2446 34.3288 26.0717C34.3288 25.8965 34.3939 25.7474 34.5241 25.6243C34.6567 25.4988 34.8153 25.4361 35 25.4361C35.1847 25.4361 35.3421 25.4988 35.4723 25.6243C35.6049 25.7474 35.6712 25.8965 35.6712 26.0717C35.6712 26.2446 35.6049 26.3937 35.4723 26.5192C35.3421 26.6423 35.1847 26.7038 35 26.7038ZM39.2409 35.1591C38.8077 35.1591 38.4348 35.1023 38.1223 34.9886C37.8122 34.875 37.5589 34.7247 37.3624 34.5376C37.1659 34.3506 37.0191 34.1458 36.9221 33.9233L37.8347 33.5469C37.8986 33.651 37.9838 33.7611 38.0904 33.8771C38.1993 33.9955 38.3461 34.0961 38.5307 34.179C38.7177 34.2618 38.958 34.3033 39.2516 34.3033C39.6541 34.3033 39.9867 34.205 40.2495 34.0085C40.5123 33.8144 40.6436 33.5043 40.6436 33.0781V32.0057H40.5762C40.5123 32.1217 40.4199 32.2507 40.2992 32.3928C40.1808 32.5348 40.0175 32.6579 39.8091 32.7621C39.6008 32.8662 39.3297 32.9183 38.9959 32.9183C38.565 32.9183 38.1768 32.8177 37.8311 32.6165C37.4879 32.4129 37.2156 32.1134 37.0144 31.718C36.8155 31.3203 36.7161 30.8314 36.7161 30.2514C36.7161 29.6714 36.8143 29.1742 37.0108 28.7599C37.2097 28.3456 37.4819 28.0284 37.8276 27.8082C38.1732 27.5857 38.565 27.4744 39.003 27.4744C39.3416 27.4744 39.615 27.5312 39.8233 27.6449C40.0317 27.7562 40.1938 27.8864 40.3098 28.0355C40.4282 28.1847 40.5194 28.3161 40.5833 28.4297H40.6614V27.5455H41.7019V33.1207C41.7019 33.5895 41.593 33.9742 41.3752 34.2749C41.1574 34.5755 40.8626 34.7981 40.4909 34.9425C40.1216 35.0869 39.705 35.1591 39.2409 35.1591ZM39.2303 32.0376C39.5357 32.0376 39.7937 31.9666 40.0044 31.8246C40.2175 31.6802 40.3785 31.4742 40.4874 31.2067C40.5987 30.9368 40.6543 30.6136 40.6543 30.2372C40.6543 29.8703 40.5998 29.5471 40.4909 29.2678C40.382 28.9884 40.2222 28.7706 40.0115 28.6143C39.8008 28.4557 39.5404 28.3764 39.2303 28.3764C38.9107 28.3764 38.6444 28.4593 38.4313 28.625C38.2182 28.7884 38.0572 29.0109 37.9483 29.2926C37.8418 29.5743 37.7885 29.8892 37.7885 30.2372C37.7885 30.5947 37.843 30.9084 37.9519 31.1783C38.0608 31.4482 38.2218 31.6589 38.4348 31.8104C38.6503 31.9619 38.9154 32.0376 39.2303 32.0376ZM44.1877 29.7614V33H43.1259V27.5455H44.1451V28.4332H44.2125C44.338 28.1444 44.5345 27.9124 44.802 27.7372C45.0719 27.562 45.4116 27.4744 45.8212 27.4744C46.1929 27.4744 46.5184 27.5526 46.7978 27.7088C47.0771 27.8627 47.2937 28.0923 47.4476 28.3977C47.6015 28.7031 47.6784 29.0807 47.6784 29.5305V33H46.6167V29.6584C46.6167 29.263 46.5137 28.9541 46.3077 28.7315C46.1017 28.5066 45.8188 28.3942 45.459 28.3942C45.2128 28.3942 44.9938 28.4474 44.802 28.554C44.6126 28.6605 44.4623 28.8168 44.351 29.0227C44.2421 29.2263 44.1877 29.4725 44.1877 29.7614ZM53.1898 28.8771L52.2275 29.0476C52.1872 28.9245 52.1233 28.8073 52.0357 28.696C51.9505 28.5848 51.8345 28.4936 51.6877 28.4226C51.5409 28.3516 51.3574 28.3161 51.1373 28.3161C50.8366 28.3161 50.5856 28.3835 50.3844 28.5185C50.1832 28.651 50.0826 28.8227 50.0826 29.0334C50.0826 29.2157 50.15 29.3625 50.285 29.4737C50.4199 29.585 50.6377 29.6761 50.9384 29.7472L51.8049 29.946C52.3068 30.062 52.6808 30.2408 52.927 30.4822C53.1732 30.7237 53.2963 31.0374 53.2963 31.4233C53.2963 31.75 53.2016 32.0412 53.0123 32.2969C52.8252 32.5502 52.5636 32.7491 52.2275 32.8935C51.8936 33.0379 51.5066 33.1101 51.0662 33.1101C50.4554 33.1101 49.9571 32.9799 49.5712 32.7195C49.1853 32.4567 48.9486 32.0838 48.861 31.6009L49.8873 31.4446C49.9512 31.7121 50.0826 31.9145 50.2814 32.0518C50.4803 32.1868 50.7395 32.2543 51.0591 32.2543C51.4071 32.2543 51.6853 32.1821 51.8936 32.0376C52.102 31.8909 52.2061 31.7121 52.2061 31.5014C52.2061 31.331 52.1422 31.1877 52.0144 31.0717C51.8889 30.9557 51.696 30.8681 51.4355 30.8089L50.5123 30.6065C50.0033 30.4905 49.6268 30.3059 49.383 30.0526C49.1415 29.7992 49.0208 29.4785 49.0208 29.0902C49.0208 28.7682 49.1107 28.4865 49.2907 28.245C49.4706 28.0036 49.7192 27.8153 50.0364 27.6804C50.3536 27.5431 50.717 27.4744 51.1266 27.4744C51.7161 27.4744 52.1801 27.6023 52.5186 27.858C52.8572 28.1113 53.0809 28.451 53.1898 28.8771Z" fill="#C0C3C6"/>
</svg>
