<svg width="20" height="20" viewBox="0 0 20 20" fill="none" xmlns="http://www.w3.org/2000/svg">
<path d="M3.33325 9.16667V12.5C3.33325 15.2498 3.33325 16.6248 4.18753 17.4791C5.04179 18.3333 6.41673 18.3333 9.16659 18.3333H10.8333C13.5831 18.3333 14.958 18.3333 15.8123 17.4791C16.6666 16.6248 16.6666 15.2498 16.6666 12.5V9.16667" stroke="#1CB4BF" stroke-width="1.5" stroke-linecap="round" stroke-linejoin="round"/>
<path d="M2.5 7.49999C2.5 6.87692 2.5 6.56538 2.66747 6.33333C2.77717 6.18131 2.93497 6.05507 3.125 5.9673C3.41507 5.83333 3.80448 5.83333 4.58333 5.83333H15.4167C16.1955 5.83333 16.5849 5.83333 16.875 5.9673C17.065 6.05507 17.2228 6.18131 17.3325 6.33333C17.5 6.56538 17.5 6.87692 17.5 7.49999C17.5 8.12307 17.5 8.43458 17.3325 8.66666C17.2228 8.81866 17.065 8.94491 16.875 9.03266C16.5849 9.16666 16.1955 9.16666 15.4167 9.16666H4.58333C3.80448 9.16666 3.41507 9.16666 3.125 9.03266C2.93497 8.94491 2.77717 8.81866 2.66747 8.66666C2.5 8.43458 2.5 8.12307 2.5 7.49999Z" stroke="#1CB4BF" stroke-width="1.5" stroke-linejoin="round"/>
<path d="M5 3.15476C5 2.33291 5.66624 1.66667 6.48809 1.66667H6.78572C8.56092 1.66667 10 3.10576 10 4.88096V5.83334H7.67857C6.19923 5.83334 5 4.6341 5 3.15476Z" stroke="#1CB4BF" stroke-width="1.5" stroke-linejoin="round"/>
<path d="M15 3.15476C15 2.33291 14.3338 1.66667 13.5119 1.66667H13.2142C11.4391 1.66667 10 3.10576 10 4.88096V5.83334H12.3214C13.8007 5.83334 15 4.6341 15 3.15476Z" stroke="#1CB4BF" stroke-width="1.5" stroke-linejoin="round"/>
<path d="M10 9.16667V18.3333" stroke="#1CB4BF" stroke-width="1.5" stroke-linecap="round" stroke-linejoin="round"/>
</svg>
