<svg width="20" height="20" viewBox="0 0 20 20" fill="none" xmlns="http://www.w3.org/2000/svg">
<path d="M5.83325 7.5V12.5" stroke="#1CB4BF" stroke-width="1.5" stroke-linecap="round" stroke-linejoin="round"/>
<path d="M5.83333 7.5H5C4.22343 7.5 3.83515 7.5 3.52886 7.62687C3.12048 7.79603 2.79603 8.12049 2.62687 8.52884C2.5 8.83517 2.5 9.22342 2.5 10C2.5 10.7766 2.5 11.1648 2.62687 11.4712C2.79603 11.8795 3.12048 12.204 3.52886 12.3732C3.83515 12.5 4.22343 12.5 5 12.5H5.83333L12.5663 14.5199C13.3576 14.7573 13.7532 14.876 14.1047 15.0845L14.1216 15.0946C14.4719 15.3053 14.7639 15.5973 15.3481 16.1814L15.4882 16.3215C15.5876 16.4209 15.6372 16.4706 15.6925 16.5103C15.7967 16.5851 15.9169 16.6349 16.0436 16.6557C16.1106 16.6667 16.1809 16.6667 16.3215 16.6667C16.6427 16.6667 16.8034 16.6667 16.933 16.6229C17.1796 16.5398 17.3731 16.3463 17.4562 16.0997C17.5 15.9701 17.5 15.8094 17.5 15.4882V4.51184C17.5 4.19055 17.5 4.02991 17.4562 3.90033C17.3731 3.65377 17.1796 3.46021 16.933 3.37704C16.8034 3.33334 16.6427 3.33334 16.3215 3.33334C16.1809 3.33334 16.1106 3.33334 16.0436 3.34434C15.9169 3.36513 15.7967 3.41489 15.6925 3.48976C15.6372 3.52939 15.5876 3.57909 15.4882 3.67851L15.3481 3.81859C14.7639 4.40272 14.4719 4.69479 14.1216 4.90541L14.1047 4.91547C13.7532 5.12404 13.3576 5.24272 12.5663 5.48009L5.83333 7.5Z" stroke="#1CB4BF" stroke-width="1.5" stroke-linecap="round" stroke-linejoin="round"/>
<path d="M6.66675 12.9167V15.0382C6.66675 15.9376 7.39584 16.6667 8.29521 16.6667C8.83966 16.6667 9.34816 16.3946 9.65016 15.9415L10.8334 14.1667" stroke="#1CB4BF" stroke-width="1.5" stroke-linecap="round" stroke-linejoin="round"/>
</svg>
