<svg width="17" height="17" viewBox="0 0 17 17" fill="none" xmlns="http://www.w3.org/2000/svg">
<path d="M8.5 15.5833C7.92044 15.5833 7.36681 15.3501 6.25949 14.8837C3.50316 13.7228 2.125 13.1423 2.125 12.1659V5.34248M8.5 15.5833C9.07956 15.5833 9.63319 15.3501 10.7405 14.8837C13.4969 13.7228 14.875 13.1423 14.875 12.1659V5.34248M8.5 15.5833V8.52067M2.125 5.34248C2.125 5.77629 2.69278 6.05023 3.82834 6.59811L5.89753 7.59644C7.17457 8.21262 7.81313 8.52067 8.5 8.52067M2.125 5.34248C2.125 4.90867 2.69278 4.63474 3.82834 4.08685L4.95833 3.54166M14.875 5.34248C14.875 5.77629 14.3072 6.05023 13.1717 6.59811L11.1025 7.59644C9.82543 8.21262 9.18687 8.52067 8.5 8.52067M14.875 5.34248C14.875 4.90867 14.3072 4.63473 13.1717 4.08685L12.0417 3.54166M4.25 9.22695L5.66667 9.93323" stroke="#CFCFD4" stroke-linecap="round" stroke-linejoin="round"/>
<path d="M7.08325 1.41666L8.49992 2.83332M8.49992 2.83332L9.91659 4.24999M8.49992 2.83332L7.08325 4.24999M8.49992 2.83332L9.91659 1.41666" stroke="#CFCFD4" stroke-linecap="round"/>
</svg>
