<svg width="31" height="39" viewBox="0 0 31 39" fill="none" xmlns="http://www.w3.org/2000/svg">
<g opacity="0.7">
<path d="M20.5 8.5C20.5 5.73858 18.2614 3.5 15.5 3.5C12.7386 3.5 10.5 5.73858 10.5 8.5C10.5 11.2614 12.7386 13.5 15.5 13.5C18.2614 13.5 20.5 11.2614 20.5 8.5Z" stroke="#F5F5F6" stroke-width="1.5" stroke-linecap="round" stroke-linejoin="round"/>
<path d="M22.5 20.5C22.5 16.634 19.366 13.5 15.5 13.5C11.634 13.5 8.5 16.634 8.5 20.5" stroke="#F5F5F6" stroke-width="1.5" stroke-linecap="round" stroke-linejoin="round"/>
</g>
<path d="M0.799006 33V25.7273H3.39134C3.95715 25.7273 4.4259 25.8303 4.79759 26.0362C5.16927 26.2422 5.44744 26.5239 5.6321 26.8814C5.81676 27.2365 5.90909 27.6366 5.90909 28.0817C5.90909 28.5291 5.81558 28.9316 5.62855 29.2891C5.44389 29.6442 5.16454 29.9259 4.79048 30.1342C4.4188 30.3402 3.95123 30.4432 3.38778 30.4432H1.60511V29.5128H3.28835C3.64583 29.5128 3.93584 29.4512 4.15838 29.3281C4.38092 29.2027 4.54427 29.0322 4.64844 28.8168C4.7526 28.6013 4.80469 28.3563 4.80469 28.0817C4.80469 27.8071 4.7526 27.5632 4.64844 27.3501C4.54427 27.1371 4.37973 26.9702 4.15483 26.8494C3.93229 26.7287 3.63873 26.6683 3.27415 26.6683H1.89631V33H0.799006ZM7.11026 33V27.5455H8.13654V28.4119H8.19336C8.29279 28.1184 8.46798 27.8875 8.71893 27.7195C8.97224 27.549 9.2587 27.4638 9.5783 27.4638C9.64459 27.4638 9.72272 27.4661 9.81268 27.4709C9.90501 27.4756 9.97721 27.4815 10.0293 27.4886V28.5043C9.98668 28.4924 9.91093 28.4794 9.80202 28.4652C9.69312 28.4486 9.58422 28.4403 9.47532 28.4403C9.22437 28.4403 9.00065 28.4936 8.80415 28.6001C8.61003 28.7043 8.45614 28.8499 8.34251 29.0369C8.22887 29.2216 8.17205 29.4323 8.17205 29.669V33H7.11026ZM13.0504 33.1101C12.5391 33.1101 12.0928 32.9929 11.7116 32.7585C11.3305 32.5241 11.0346 32.1963 10.8239 31.7749C10.6132 31.3535 10.5078 30.861 10.5078 30.2976C10.5078 29.7318 10.6132 29.237 10.8239 28.8132C11.0346 28.3894 11.3305 28.0604 11.7116 27.826C12.0928 27.5916 12.5391 27.4744 13.0504 27.4744C13.5618 27.4744 14.008 27.5916 14.3892 27.826C14.7704 28.0604 15.0663 28.3894 15.277 28.8132C15.4877 29.237 15.593 29.7318 15.593 30.2976C15.593 30.861 15.4877 31.3535 15.277 31.7749C15.0663 32.1963 14.7704 32.5241 14.3892 32.7585C14.008 32.9929 13.5618 33.1101 13.0504 33.1101ZM13.054 32.2188C13.3854 32.2188 13.66 32.1312 13.8778 31.956C14.0956 31.7808 14.2566 31.5476 14.3608 31.2564C14.4673 30.9652 14.5206 30.6444 14.5206 30.294C14.5206 29.946 14.4673 29.6264 14.3608 29.3352C14.2566 29.0417 14.0956 28.8061 13.8778 28.6286C13.66 28.451 13.3854 28.3622 13.054 28.3622C12.7202 28.3622 12.4432 28.451 12.223 28.6286C12.0052 28.8061 11.843 29.0417 11.7365 29.3352C11.6323 29.6264 11.5803 29.946 11.5803 30.294C11.5803 30.6444 11.6323 30.9652 11.7365 31.2564C11.843 31.5476 12.0052 31.7808 12.223 31.956C12.4432 32.1312 12.7202 32.2188 13.054 32.2188ZM19.3741 27.5455V28.3977H16.2917V27.5455H19.3741ZM17.1369 33V26.9134C17.1369 26.5724 17.2115 26.2895 17.3606 26.0646C17.5098 25.8374 17.7074 25.6681 17.9537 25.5568C18.1999 25.4432 18.4674 25.3864 18.7562 25.3864C18.9693 25.3864 19.1516 25.4041 19.3031 25.4396C19.4546 25.4728 19.5671 25.5036 19.6404 25.532L19.3919 26.3913C19.3422 26.3771 19.2782 26.3606 19.2001 26.3416C19.122 26.3203 19.0273 26.3097 18.916 26.3097C18.658 26.3097 18.4733 26.3736 18.362 26.5014C18.2531 26.6293 18.1987 26.8139 18.1987 27.0554V33H17.1369ZM20.4696 33V27.5455H21.5314V33H20.4696ZM21.0059 26.7038C20.8212 26.7038 20.6626 26.6423 20.53 26.5192C20.3998 26.3937 20.3347 26.2446 20.3347 26.0717C20.3347 25.8965 20.3998 25.7474 20.53 25.6243C20.6626 25.4988 20.8212 25.4361 21.0059 25.4361C21.1905 25.4361 21.348 25.4988 21.4782 25.6243C21.6107 25.7474 21.677 25.8965 21.677 26.0717C21.677 26.2446 21.6107 26.3937 21.4782 26.5192C21.348 26.6423 21.1905 26.7038 21.0059 26.7038ZM24.0217 25.7273V33H22.9599V25.7273H24.0217ZM27.801 33.1101C27.2636 33.1101 26.8007 32.9953 26.4125 32.7656C26.0266 32.5336 25.7283 32.2081 25.5176 31.7891C25.3092 31.3677 25.2051 30.8741 25.2051 30.3082C25.2051 29.7495 25.3092 29.2571 25.5176 28.831C25.7283 28.4048 26.0218 28.0722 26.3983 27.8331C26.777 27.594 27.2198 27.4744 27.7264 27.4744C28.0342 27.4744 28.3324 27.5253 28.6213 27.6271C28.9101 27.7289 29.1693 27.8887 29.399 28.1065C29.6286 28.3243 29.8097 28.6072 29.9423 28.9553C30.0749 29.3009 30.1412 29.7211 30.1412 30.2159V30.5923H25.8052V29.7969H29.1007C29.1007 29.5175 29.0439 29.2701 28.9302 29.0547C28.8166 28.8369 28.6568 28.6652 28.4508 28.5398C28.2472 28.4143 28.0081 28.3516 27.7335 28.3516C27.4352 28.3516 27.1748 28.425 26.9522 28.5717C26.7321 28.7161 26.5616 28.9055 26.4409 29.1399C26.3225 29.3719 26.2633 29.6241 26.2633 29.8963V30.5178C26.2633 30.8823 26.3272 31.1925 26.4551 31.4482C26.5853 31.7038 26.7664 31.8991 26.9984 32.0341C27.2304 32.1667 27.5015 32.233 27.8116 32.233C28.0128 32.233 28.1963 32.2045 28.362 32.1477C28.5278 32.0885 28.671 32.0009 28.7917 31.8849C28.9125 31.7689 29.0048 31.6257 29.0687 31.4553L30.0737 31.6364C29.9932 31.9323 29.8488 32.1915 29.6404 32.4141C29.4345 32.6342 29.1752 32.8059 28.8627 32.929C28.5526 33.0497 28.1987 33.1101 27.801 33.1101Z" fill="#C0C3C6"/>
</svg>
