<svg width="20" height="20" viewBox="0 0 20 20" fill="none" xmlns="http://www.w3.org/2000/svg">
<path d="M8.75 16.875C8.75 17.2202 8.47017 17.5 8.125 17.5C7.77983 17.5 7.5 17.2202 7.5 16.875C7.5 16.5298 7.77983 16.25 8.125 16.25C8.47017 16.25 8.75 16.5298 8.75 16.875Z" stroke="#1CB4BF" stroke-width="1.5" stroke-linecap="round" stroke-linejoin="round"/>
<path d="M15.8333 16.875C15.8333 17.2202 15.5534 17.5 15.2083 17.5C14.8631 17.5 14.5833 17.2202 14.5833 16.875C14.5833 16.5298 14.8631 16.25 15.2083 16.25C15.5534 16.25 15.8333 16.5298 15.8333 16.875Z" stroke="#1CB4BF" stroke-width="1.5" stroke-linecap="round" stroke-linejoin="round"/>
<path d="M1.66675 2.5H1.83895C2.94278 2.5 3.4947 2.5 3.85466 2.83518C4.21463 3.17034 4.25395 3.72086 4.3326 4.82188L4.54204 7.75413C4.66041 9.41133 4.7196 10.2399 4.97071 10.9134C5.52117 12.3898 6.73532 13.5203 8.24715 13.9642C8.93683 14.1667 9.77233 14.1667 11.4432 14.1667C13.1978 14.1667 14.0751 14.1667 14.7848 13.9513C16.3828 13.4666 17.6333 12.2161 18.1181 10.6181C18.2856 10.0661 18.3227 9.41583 18.3311 8.33333M10.4167 5H4.58341" stroke="#1CB4BF" stroke-width="1.5" stroke-linecap="round" stroke-linejoin="round"/>
<path d="M13.3333 5H18.3333M15.8333 7.5V2.5" stroke="#1CB4BF" stroke-width="1.5" stroke-linecap="round" stroke-linejoin="round"/>
</svg>
