<svg width="79" height="44" viewBox="0 0 79 44" fill="none" xmlns="http://www.w3.org/2000/svg">
<g opacity="0.7">
<path d="M34.5 17V13" stroke="#C0C3C6" stroke-width="1.5" stroke-linecap="round"/>
<path d="M39.5 17V7" stroke="#C0C3C6" stroke-width="1.5" stroke-linecap="round"/>
<path d="M44.5 17V11" stroke="#C0C3C6" stroke-width="1.5" stroke-linecap="round"/>
<path d="M30 12C30 7.52166 30 5.28249 31.3912 3.89124C32.7825 2.5 35.0217 2.5 39.5 2.5C43.9783 2.5 46.2175 2.5 47.6088 3.89124C49 5.28249 49 7.52166 49 12C49 16.4783 49 18.7175 47.6088 20.1088C46.2175 21.5 43.9783 21.5 39.5 21.5C35.0217 21.5 32.7825 21.5 31.3912 20.1088C30 18.7175 30 16.4783 30 12Z" stroke="#C0C3C6" stroke-width="1.5" stroke-linejoin="round"/>
</g>
<path d="M4.76562 32.6378C4.72775 32.3016 4.5715 32.0412 4.29688 31.8565C4.02225 31.6695 3.67661 31.576 3.25994 31.576C2.96165 31.576 2.7036 31.6233 2.4858 31.718C2.26799 31.8104 2.09872 31.9382 1.97798 32.1016C1.85961 32.2625 1.80043 32.446 1.80043 32.652C1.80043 32.8248 1.84067 32.974 1.92116 33.0994C2.00402 33.2249 2.11174 33.3303 2.24432 33.4155C2.37926 33.4983 2.52367 33.5682 2.67756 33.625C2.83144 33.6795 2.9794 33.7244 3.12145 33.7599L3.83168 33.9446C4.06368 34.0014 4.30161 34.0784 4.54545 34.1754C4.7893 34.2725 5.01539 34.4003 5.22372 34.5589C5.43206 34.7176 5.60014 34.9141 5.72798 35.1484C5.85819 35.3828 5.9233 35.6634 5.9233 35.9901C5.9233 36.402 5.81676 36.7678 5.60369 37.0874C5.39299 37.407 5.08641 37.6591 4.68395 37.8438C4.28385 38.0284 3.79972 38.1207 3.23153 38.1207C2.68703 38.1207 2.21591 38.0343 1.81818 37.8615C1.42045 37.6887 1.10914 37.4437 0.884233 37.1264C0.659328 36.8068 0.535038 36.428 0.511364 35.9901H1.61222C1.63352 36.2528 1.71875 36.4718 1.8679 36.647C2.01941 36.8198 2.21236 36.9489 2.44673 37.0341C2.68348 37.117 2.94271 37.1584 3.22443 37.1584C3.53456 37.1584 3.81037 37.1098 4.05185 37.0128C4.29569 36.9134 4.48745 36.776 4.62713 36.6009C4.76681 36.4233 4.83665 36.2161 4.83665 35.9794C4.83665 35.764 4.77509 35.5876 4.65199 35.4503C4.53125 35.313 4.36671 35.1993 4.15838 35.1094C3.95241 35.0194 3.71922 34.9401 3.45881 34.8714L2.59943 34.6371C2.01705 34.4785 1.5554 34.2453 1.21449 33.9375C0.875947 33.6297 0.706676 33.2225 0.706676 32.7159C0.706676 32.2969 0.820313 31.9311 1.04759 31.6186C1.27486 31.3061 1.58262 31.0634 1.97088 30.8906C2.35914 30.7154 2.79711 30.6278 3.2848 30.6278C3.77723 30.6278 4.21165 30.7143 4.58807 30.8871C4.96686 31.0599 5.26515 31.2978 5.48295 31.6009C5.70076 31.9015 5.81439 32.2472 5.82386 32.6378H4.76562ZM7.14933 40.0455V32.5455H8.18626V33.4297H8.27504C8.33659 33.3161 8.42537 33.1847 8.54137 33.0355C8.65737 32.8864 8.81836 32.7562 9.02433 32.6449C9.23029 32.5312 9.50255 32.4744 9.84109 32.4744C10.2814 32.4744 10.6744 32.5857 11.0201 32.8082C11.3657 33.0308 11.6368 33.3516 11.8333 33.7706C12.0321 34.1896 12.1316 34.6939 12.1316 35.2834C12.1316 35.8729 12.0333 36.3783 11.8368 36.7997C11.6403 37.2187 11.3704 37.5419 11.0272 37.7692C10.6839 37.9941 10.2921 38.1065 9.85174 38.1065C9.5203 38.1065 9.24923 38.0509 9.03853 37.9396C8.8302 37.8284 8.66684 37.6982 8.54847 37.549C8.4301 37.3999 8.33896 37.2673 8.27504 37.1513H8.21112V40.0455H7.14933ZM8.18981 35.2727C8.18981 35.6562 8.24544 35.9924 8.35671 36.2812C8.46798 36.5701 8.62897 36.7962 8.83967 36.9595C9.05037 37.1205 9.30842 37.201 9.61381 37.201C9.93105 37.201 10.1962 37.117 10.4093 36.9489C10.6223 36.7784 10.7833 36.5476 10.8922 36.2564C11.0035 35.9652 11.0591 35.6373 11.0591 35.2727C11.0591 34.9129 11.0047 34.5897 10.8958 34.3033C10.7892 34.0168 10.6283 33.7907 10.4128 33.625C10.1998 33.4593 9.93342 33.3764 9.61381 33.3764C9.30605 33.3764 9.04563 33.4557 8.83256 33.6143C8.62186 33.773 8.46206 33.9943 8.35316 34.2784C8.24426 34.5625 8.18981 34.8939 8.18981 35.2727ZM15.6721 38.1101C15.1346 38.1101 14.6718 37.9953 14.2836 37.7656C13.8977 37.5336 13.5994 37.2081 13.3887 36.7891C13.1803 36.3677 13.0762 35.8741 13.0762 35.3082C13.0762 34.7495 13.1803 34.2571 13.3887 33.831C13.5994 33.4048 13.8929 33.0722 14.2694 32.8331C14.6481 32.594 15.0908 32.4744 15.5975 32.4744C15.9052 32.4744 16.2035 32.5253 16.4924 32.6271C16.7812 32.7289 17.0404 32.8887 17.2701 33.1065C17.4997 33.3243 17.6808 33.6072 17.8134 33.9553C17.946 34.3009 18.0123 34.7211 18.0123 35.2159V35.5923H13.6763V34.7969H16.9718C16.9718 34.5175 16.915 34.2701 16.8013 34.0547C16.6877 33.8369 16.5279 33.6652 16.3219 33.5398C16.1183 33.4143 15.8792 33.3516 15.6046 33.3516C15.3063 33.3516 15.0459 33.425 14.8233 33.5717C14.6032 33.7161 14.4327 33.9055 14.312 34.1399C14.1936 34.3719 14.1344 34.6241 14.1344 34.8963V35.5178C14.1344 35.8823 14.1983 36.1925 14.3262 36.4482C14.4564 36.7038 14.6375 36.8991 14.8695 37.0341C15.1015 37.1667 15.3726 37.233 15.6827 37.233C15.8839 37.233 16.0674 37.2045 16.2331 37.1477C16.3989 37.0885 16.5421 37.0009 16.6628 36.8849C16.7836 36.7689 16.8759 36.6257 16.9398 36.4553L17.9448 36.6364C17.8643 36.9323 17.7199 37.1915 17.5115 37.4141C17.3056 37.6342 17.0463 37.8059 16.7338 37.929C16.4237 38.0497 16.0698 38.1101 15.6721 38.1101ZM20.2521 34.7614V38H19.1903V32.5455H20.2095V33.4332H20.277C20.4025 33.1444 20.599 32.9124 20.8665 32.7372C21.1364 32.562 21.4761 32.4744 21.8857 32.4744C22.2573 32.4744 22.5829 32.5526 22.8622 32.7088C23.1416 32.8627 23.3582 33.0923 23.5121 33.3977C23.666 33.7031 23.7429 34.0807 23.7429 34.5305V38H22.6811V34.6584C22.6811 34.263 22.5781 33.9541 22.3722 33.7315C22.1662 33.5066 21.8833 33.3942 21.5234 33.3942C21.2772 33.3942 21.0582 33.4474 20.8665 33.554C20.6771 33.6605 20.5268 33.8168 20.4155 34.0227C20.3066 34.2263 20.2521 34.4725 20.2521 34.7614ZM27.2088 38.1065C26.7685 38.1065 26.3755 37.9941 26.0298 37.7692C25.6866 37.5419 25.4167 37.2187 25.2202 36.7997C25.026 36.3783 24.929 35.8729 24.929 35.2834C24.929 34.6939 25.0272 34.1896 25.2237 33.7706C25.4226 33.3516 25.6948 33.0308 26.0405 32.8082C26.3861 32.5857 26.7779 32.4744 27.2159 32.4744C27.5545 32.4744 27.8267 32.5312 28.0327 32.6449C28.241 32.7562 28.402 32.8864 28.5156 33.0355C28.6316 33.1847 28.7216 33.3161 28.7855 33.4297H28.8494V30.7273H29.9112V38H28.8743V37.1513H28.7855C28.7216 37.2673 28.6293 37.3999 28.5085 37.549C28.3902 37.6982 28.2268 37.8284 28.0185 37.9396C27.8101 38.0509 27.5402 38.1065 27.2088 38.1065ZM27.4432 37.201C27.7486 37.201 28.0066 37.1205 28.2173 36.9595C28.4304 36.7962 28.5914 36.5701 28.7003 36.2812C28.8116 35.9924 28.8672 35.6562 28.8672 35.2727C28.8672 34.8939 28.8127 34.5625 28.7038 34.2784C28.5949 33.9943 28.4351 33.773 28.2244 33.6143C28.0137 33.4557 27.7533 33.3764 27.4432 33.3764C27.1236 33.3764 26.8572 33.4593 26.6442 33.625C26.4311 33.7907 26.2701 34.0168 26.1612 34.3033C26.0547 34.5897 26.0014 34.9129 26.0014 35.2727C26.0014 35.6373 26.0559 35.9652 26.1648 36.2564C26.2737 36.5476 26.4347 36.7784 26.6477 36.9489C26.8632 37.117 27.1283 37.201 27.4432 37.201ZM38.125 32.6378C38.0871 32.3016 37.9309 32.0412 37.6562 31.8565C37.3816 31.6695 37.036 31.576 36.6193 31.576C36.321 31.576 36.063 31.6233 35.8452 31.718C35.6274 31.8104 35.4581 31.9382 35.3374 32.1016C35.219 32.2625 35.1598 32.446 35.1598 32.652C35.1598 32.8248 35.2 32.974 35.2805 33.0994C35.3634 33.2249 35.4711 33.3303 35.6037 33.4155C35.7386 33.4983 35.883 33.5682 36.0369 33.625C36.1908 33.6795 36.3388 33.7244 36.4808 33.7599L37.1911 33.9446C37.4231 34.0014 37.661 34.0784 37.9048 34.1754C38.1487 34.2725 38.3748 34.4003 38.5831 34.5589C38.7914 34.7176 38.9595 34.9141 39.0874 35.1484C39.2176 35.3828 39.2827 35.6634 39.2827 35.9901C39.2827 36.402 39.1761 36.7678 38.9631 37.0874C38.7524 37.407 38.4458 37.6591 38.0433 37.8438C37.6432 38.0284 37.1591 38.1207 36.5909 38.1207C36.0464 38.1207 35.5753 38.0343 35.1776 37.8615C34.7798 37.6887 34.4685 37.4437 34.2436 37.1264C34.0187 36.8068 33.8944 36.428 33.8707 35.9901H34.9716C34.9929 36.2528 35.0781 36.4718 35.2273 36.647C35.3788 36.8198 35.5717 36.9489 35.8061 37.0341C36.0429 37.117 36.3021 37.1584 36.5838 37.1584C36.8939 37.1584 37.1697 37.1098 37.4112 37.0128C37.6551 36.9134 37.8468 36.776 37.9865 36.6009C38.1262 36.4233 38.196 36.2161 38.196 35.9794C38.196 35.764 38.1345 35.5876 38.0114 35.4503C37.8906 35.313 37.7261 35.1993 37.5178 35.1094C37.3118 35.0194 37.0786 34.9401 36.8182 34.8714L35.9588 34.6371C35.3764 34.4785 34.9148 34.2453 34.5739 33.9375C34.2353 33.6297 34.0661 33.2225 34.0661 32.7159C34.0661 32.2969 34.1797 31.9311 34.407 31.6186C34.6342 31.3061 34.942 31.0634 35.3303 30.8906C35.7185 30.7154 36.1565 30.6278 36.6442 30.6278C37.1366 30.6278 37.571 30.7143 37.9474 30.8871C38.3262 31.0599 38.6245 31.2978 38.8423 31.6009C39.0601 31.9015 39.1738 32.2472 39.1832 32.6378H38.125ZM43.964 35.7379V32.5455H45.0293V38H43.9853V37.0554H43.9284C43.803 37.3466 43.6017 37.5893 43.3248 37.7834C43.0501 37.9751 42.708 38.071 42.2985 38.071C41.9481 38.071 41.638 37.9941 41.3681 37.8402C41.1006 37.6839 40.8899 37.4531 40.736 37.1477C40.5845 36.8423 40.5087 36.4647 40.5087 36.0149V32.5455H41.5705V35.8871C41.5705 36.2588 41.6735 36.5547 41.8794 36.7749C42.0854 36.995 42.3529 37.1051 42.682 37.1051C42.8809 37.1051 43.0785 37.0554 43.275 36.956C43.4739 36.8565 43.6384 36.7062 43.7686 36.505C43.9012 36.3037 43.9663 36.0481 43.964 35.7379ZM46.456 38V32.5455H47.4751V33.4332H47.5426C47.6563 33.1326 47.8421 32.8982 48.1001 32.7301C48.3582 32.5597 48.6671 32.4744 49.027 32.4744C49.3916 32.4744 49.697 32.5597 49.9432 32.7301C50.1918 32.9006 50.3752 33.1349 50.4936 33.4332H50.5504C50.6806 33.142 50.8878 32.91 51.1719 32.7372C51.456 32.562 51.7945 32.4744 52.1875 32.4744C52.6823 32.4744 53.0859 32.6295 53.3984 32.9396C53.7133 33.2498 53.8707 33.7173 53.8707 34.3423V38H52.8089V34.4418C52.8089 34.0724 52.7083 33.8049 52.5071 33.6392C52.3059 33.4735 52.0656 33.3906 51.7862 33.3906C51.4406 33.3906 51.1719 33.4972 50.9801 33.7102C50.7884 33.9209 50.6925 34.192 50.6925 34.5234V38H49.6342V34.3743C49.6342 34.0784 49.5419 33.8404 49.3572 33.6605C49.1726 33.4806 48.9323 33.3906 48.6364 33.3906C48.4351 33.3906 48.2493 33.4439 48.0788 33.5504C47.9107 33.6546 47.7746 33.8002 47.6705 33.9872C47.5687 34.1742 47.5178 34.3909 47.5178 34.6371V38H46.456ZM55.2939 38V32.5455H56.313V33.4332H56.3805C56.4941 33.1326 56.68 32.8982 56.938 32.7301C57.1961 32.5597 57.505 32.4744 57.8649 32.4744C58.2295 32.4744 58.5349 32.5597 58.7811 32.7301C59.0297 32.9006 59.2131 33.1349 59.3315 33.4332H59.3883C59.5185 33.142 59.7257 32.91 60.0098 32.7372C60.2939 32.562 60.6324 32.4744 61.0254 32.4744C61.5202 32.4744 61.9238 32.6295 62.2363 32.9396C62.5512 33.2498 62.7086 33.7173 62.7086 34.3423V38H61.6468V34.4418C61.6468 34.0724 61.5462 33.8049 61.345 33.6392C61.1438 33.4735 60.9035 33.3906 60.6241 33.3906C60.2785 33.3906 60.0098 33.4972 59.818 33.7102C59.6262 33.9209 59.5304 34.192 59.5304 34.5234V38H58.4721V34.3743C58.4721 34.0784 58.3798 33.8404 58.1951 33.6605C58.0105 33.4806 57.7702 33.3906 57.4743 33.3906C57.273 33.3906 57.0872 33.4439 56.9167 33.5504C56.7486 33.6546 56.6125 33.8002 56.5083 33.9872C56.4065 34.1742 56.3556 34.3909 56.3556 34.6371V38H55.2939ZM65.7191 38.1207C65.3735 38.1207 65.061 38.0568 64.7816 37.929C64.5022 37.7988 64.2809 37.6106 64.1175 37.3643C63.9566 37.1181 63.8761 36.8163 63.8761 36.4588C63.8761 36.151 63.9353 35.8977 64.0536 35.6989C64.172 35.5 64.3318 35.3426 64.533 35.2266C64.7343 35.1106 64.9592 35.023 65.2077 34.9638C65.4563 34.9046 65.7096 34.8596 65.9677 34.8288C66.2944 34.791 66.5595 34.7602 66.7631 34.7365C66.9667 34.7105 67.1147 34.669 67.207 34.6122C67.2994 34.5554 67.3455 34.4631 67.3455 34.3352V34.3104C67.3455 34.0002 67.2579 33.7599 67.0827 33.5895C66.9099 33.419 66.6519 33.3338 66.3086 33.3338C65.9511 33.3338 65.6694 33.4131 65.4634 33.5717C65.2598 33.728 65.119 33.902 65.0408 34.0938L64.043 33.8665C64.1613 33.535 64.3342 33.2675 64.5614 33.0639C64.7911 32.858 65.055 32.7088 65.3533 32.6165C65.6516 32.5218 65.9653 32.4744 66.2944 32.4744C66.5122 32.4744 66.743 32.5005 66.9869 32.5526C67.2331 32.6023 67.4627 32.6946 67.6758 32.8295C67.8912 32.9645 68.0676 33.1574 68.2049 33.4084C68.3422 33.657 68.4109 33.9801 68.4109 34.3778V38H67.3739V37.2543H67.3313C67.2627 37.3916 67.1597 37.5265 67.0224 37.6591C66.8851 37.7917 66.7087 37.9018 66.4933 37.9893C66.2778 38.0769 66.0198 38.1207 65.7191 38.1207ZM65.9499 37.2685C66.2435 37.2685 66.4944 37.2105 66.7028 37.0945C66.9135 36.9785 67.0733 36.8269 67.1822 36.6399C67.2934 36.4505 67.3491 36.2481 67.3491 36.0327V35.3295C67.3112 35.3674 67.2378 35.4029 67.1289 35.4361C67.0224 35.4669 66.9004 35.4941 66.7631 35.5178C66.6258 35.5391 66.4921 35.5592 66.3619 35.5781C66.2317 35.5947 66.1228 35.6089 66.0352 35.6207C65.8292 35.6468 65.641 35.6906 65.4705 35.7521C65.3024 35.8137 65.1675 35.9025 65.0657 36.0185C64.9663 36.1321 64.9165 36.2836 64.9165 36.473C64.9165 36.7358 65.0136 36.9347 65.2077 37.0696C65.4019 37.2022 65.6493 37.2685 65.9499 37.2685ZM69.8251 38V32.5455H70.8514V33.4119H70.9082C71.0076 33.1184 71.1828 32.8875 71.4338 32.7195C71.6871 32.549 71.9735 32.4638 72.2931 32.4638C72.3594 32.4638 72.4376 32.4661 72.5275 32.4709C72.6199 32.4756 72.6921 32.4815 72.7441 32.4886V33.5043C72.7015 33.4924 72.6258 33.4794 72.5169 33.4652C72.408 33.4486 72.2991 33.4403 72.1902 33.4403C71.9392 33.4403 71.7155 33.4936 71.519 33.6001C71.3249 33.7043 71.171 33.8499 71.0574 34.0369C70.9437 34.2216 70.8869 34.4323 70.8869 34.669V38H69.8251ZM74.5002 40.0455C74.3416 40.0455 74.1971 40.0324 74.0669 40.0064C73.9367 39.9827 73.8397 39.9567 73.7757 39.9283L74.0314 39.0582C74.2256 39.1103 74.3984 39.1328 74.5499 39.1257C74.7014 39.1186 74.8352 39.0618 74.9512 38.9553C75.0695 38.8487 75.1737 38.6747 75.2637 38.4332L75.3951 38.071L73.3993 32.5455H74.5357L75.9171 36.7784H75.9739L77.3553 32.5455H78.4952L76.2473 38.728C76.1432 39.0121 76.0106 39.2524 75.8496 39.4489C75.6886 39.6477 75.4969 39.7969 75.2743 39.8963C75.0518 39.9957 74.7937 40.0455 74.5002 40.0455Z" fill="#C0C3C6"/>
</svg>
