<svg width="15" height="15" viewBox="0 0 15 15" fill="none" xmlns="http://www.w3.org/2000/svg">
<path d="M7.5 1.25C10.9517 1.25 13.75 4.04822 13.75 7.5C13.75 10.9517 10.9517 13.75 7.5 13.75C4.04822 13.75 1.25 10.9517 1.25 7.5C1.25 4.04822 4.04822 1.25 7.5 1.25Z" stroke="#1CB4BF" stroke-linejoin="round"/>
<path d="M7.5 3.75C9.57106 3.75 11.25 5.42893 11.25 7.5C11.25 9.57106 9.57106 11.25 7.5 11.25C5.42893 11.25 3.75 9.57106 3.75 7.5C3.75 5.42893 5.42893 3.75 7.5 3.75Z" stroke="#1CB4BF" stroke-linejoin="round"/>
<path d="M7.5 6.25C8.19037 6.25 8.75 6.80963 8.75 7.5C8.75 8.19037 8.19037 8.75 7.5 8.75C6.80963 8.75 6.25 8.19037 6.25 7.5C6.25 6.80963 6.80963 6.25 7.5 6.25Z" stroke="#1CB4BF" stroke-linejoin="round"/>
</svg>
