<svg width="25" height="25" viewBox="0 0 25 25" fill="none" xmlns="http://www.w3.org/2000/svg">
<path d="M14.5835 3.125H10.4168C6.48845 3.125 4.52428 3.125 3.30388 4.34539C2.0835 5.56578 2.0835 7.52996 2.0835 11.4583C2.0835 15.3867 2.0835 17.3509 3.30388 18.5712C4.52428 19.7917 6.48845 19.7917 10.4168 19.7917H14.5835C18.5118 19.7917 20.4761 19.7917 21.6964 18.5712C22.9168 17.3509 22.9168 15.3867 22.9168 11.4583C22.9168 7.52996 22.9168 5.56578 21.6964 4.34539C20.4761 3.125 18.5118 3.125 14.5835 3.125Z" stroke="#1CB4BF" stroke-width="1.5" stroke-linecap="round"/>
<path d="M17.6042 16.1458C17.6042 15.2253 18.3503 14.4792 19.2708 14.4792M14.2708 16.1458C14.2708 13.3844 16.5094 11.1458 19.2708 11.1458M10.9375 16.1458C10.9375 11.5434 14.6684 7.8125 19.2708 7.8125" stroke="#1CB4BF" stroke-width="1.5" stroke-linecap="round"/>
<path d="M18.75 19.7917L19.7917 21.875" stroke="#1CB4BF" stroke-width="1.5" stroke-linecap="round" stroke-linejoin="round"/>
<path d="M6.25016 19.7917L5.2085 21.875" stroke="#1CB4BF" stroke-width="1.5" stroke-linecap="round" stroke-linejoin="round"/>
</svg>
